<mxfile host="app.diagrams.net" modified="2024-04-20T14:06:15.081Z" agent="Mozilla/5.0 (Windows NT 10.0; Win64; x64) AppleWebKit/537.36 (KHTML, like Gecko) Chrome/123.0.0.0 Safari/537.36" etag="SBakKlKfjBAww3AFO3ht" version="24.2.7" type="google">
  <diagram name="PÃ¡gina-1" id="Eg3eHYoaygyU-Ix7T1cm">
    <mxGraphModel dx="1050" dy="569" grid="1" gridSize="10" guides="1" tooltips="1" connect="1" arrows="1" fold="1" page="1" pageScale="1" pageWidth="827" pageHeight="1169" math="0" shadow="0">
      <root>
        <mxCell id="0" />
        <mxCell id="1" parent="0" />
        <mxCell id="bY6jJw300wS0cYKBTAvz-1" value="" style="whiteSpace=wrap;html=1;aspect=fixed;" vertex="1" parent="1">
          <mxGeometry x="189" y="40" width="450" height="450" as="geometry" />
        </mxCell>
        <mxCell id="bY6jJw300wS0cYKBTAvz-4" value="" style="rounded=1;whiteSpace=wrap;html=1;" vertex="1" parent="1">
          <mxGeometry x="190" y="480" width="450" height="20" as="geometry" />
        </mxCell>
        <mxCell id="bY6jJw300wS0cYKBTAvz-6" value="" style="rounded=1;whiteSpace=wrap;html=1;" vertex="1" parent="1">
          <mxGeometry x="480" y="70" width="40" height="10" as="geometry" />
        </mxCell>
        <mxCell id="bY6jJw300wS0cYKBTAvz-7" value="" style="rounded=1;whiteSpace=wrap;html=1;" vertex="1" parent="1">
          <mxGeometry x="530" y="70" width="40" height="10" as="geometry" />
        </mxCell>
        <mxCell id="bY6jJw300wS0cYKBTAvz-11" value="" style="rounded=1;whiteSpace=wrap;html=1;" vertex="1" parent="1">
          <mxGeometry x="580" y="70" width="40" height="10" as="geometry" />
        </mxCell>
        <mxCell id="bY6jJw300wS0cYKBTAvz-12" value="" style="rounded=1;whiteSpace=wrap;html=1;" vertex="1" parent="1">
          <mxGeometry x="230" y="60" width="90" height="30" as="geometry" />
        </mxCell>
        <mxCell id="bY6jJw300wS0cYKBTAvz-15" value="" style="rounded=1;whiteSpace=wrap;html=1;" vertex="1" parent="1">
          <mxGeometry x="450" y="185" width="140" height="165" as="geometry" />
        </mxCell>
        <mxCell id="bY6jJw300wS0cYKBTAvz-16" value="Actor" style="shape=umlActor;verticalLabelPosition=bottom;verticalAlign=top;html=1;outlineConnect=0;" vertex="1" parent="1">
          <mxGeometry x="490" y="215" width="60" height="100" as="geometry" />
        </mxCell>
        <mxCell id="bY6jJw300wS0cYKBTAvz-21" value="" style="rounded=1;whiteSpace=wrap;html=1;" vertex="1" parent="1">
          <mxGeometry x="240" y="330" width="70" height="20" as="geometry" />
        </mxCell>
        <mxCell id="bY6jJw300wS0cYKBTAvz-22" value="" style="rounded=1;whiteSpace=wrap;html=1;" vertex="1" parent="1">
          <mxGeometry x="230" y="165" width="150" height="20" as="geometry" />
        </mxCell>
        <mxCell id="bY6jJw300wS0cYKBTAvz-23" value="" style="rounded=1;whiteSpace=wrap;html=1;" vertex="1" parent="1">
          <mxGeometry x="330" y="170" width="40" height="10" as="geometry" />
        </mxCell>
        <mxCell id="bY6jJw300wS0cYKBTAvz-25" value="" style="rounded=1;whiteSpace=wrap;html=1;" vertex="1" parent="1">
          <mxGeometry x="285" y="170" width="40" height="10" as="geometry" />
        </mxCell>
        <mxCell id="bY6jJw300wS0cYKBTAvz-26" value="" style="rounded=1;whiteSpace=wrap;html=1;" vertex="1" parent="1">
          <mxGeometry x="240" y="170" width="40" height="10" as="geometry" />
        </mxCell>
        <mxCell id="bY6jJw300wS0cYKBTAvz-27" value="MEU PORTIFOLIO" style="text;html=1;align=center;verticalAlign=middle;whiteSpace=wrap;rounded=0;" vertex="1" parent="1">
          <mxGeometry x="230" y="190" width="110" height="10" as="geometry" />
        </mxCell>
        <mxCell id="bY6jJw300wS0cYKBTAvz-28" value="CAIQUE BARBBOSA DOS SANTOS" style="text;html=1;align=center;verticalAlign=middle;whiteSpace=wrap;rounded=0;" vertex="1" parent="1">
          <mxGeometry x="230" y="215" width="150" height="95" as="geometry" />
        </mxCell>
        <mxCell id="bY6jJw300wS0cYKBTAvz-29" value="SOBRE MIM" style="rounded=1;whiteSpace=wrap;html=1;" vertex="1" parent="1">
          <mxGeometry x="354" y="380" width="116" height="10" as="geometry" />
        </mxCell>
        <mxCell id="bY6jJw300wS0cYKBTAvz-30" value="Text, TextText, TextText, TextText, TextText, TextText, TextText, TextText, TextText, TextText,&amp;nbsp;" style="text;html=1;align=center;verticalAlign=middle;whiteSpace=wrap;rounded=0;" vertex="1" parent="1">
          <mxGeometry x="320" y="400" width="190" height="30" as="geometry" />
        </mxCell>
        <mxCell id="bY6jJw300wS0cYKBTAvz-33" value="" style="ellipse;whiteSpace=wrap;html=1;aspect=fixed;" vertex="1" parent="1">
          <mxGeometry x="424.5" y="455" width="15" height="15" as="geometry" />
        </mxCell>
        <mxCell id="bY6jJw300wS0cYKBTAvz-34" value="" style="ellipse;whiteSpace=wrap;html=1;aspect=fixed;" vertex="1" parent="1">
          <mxGeometry x="407.5" y="455" width="15" height="15" as="geometry" />
        </mxCell>
        <mxCell id="bY6jJw300wS0cYKBTAvz-35" value="" style="ellipse;whiteSpace=wrap;html=1;aspect=fixed;" vertex="1" parent="1">
          <mxGeometry x="390" y="455" width="15" height="15" as="geometry" />
        </mxCell>
        <mxCell id="bY6jJw300wS0cYKBTAvz-36" value="" style="rounded=0;whiteSpace=wrap;html=1;" vertex="1" parent="1">
          <mxGeometry x="200" y="460" width="80" height="10" as="geometry" />
        </mxCell>
      </root>
    </mxGraphModel>
  </diagram>
</mxfile>
